<?xml version="1.0" encoding="UTF-8"?>
<svg version="1.1" xmlns="http://www.w3.org/2000/svg" width="64" height="64">
<path d="M0 0 C11.88 0 23.76 0 36 0 C36 11.88 36 23.76 36 36 C33.69 36 31.38 36 29 36 C28.67 28.74 28.34 21.48 28 14 C24.71939631 17.07284067 21.45929996 20.15422404 18.22827148 23.27734375 C17.12760143 24.33300619 16.01895553 25.38042203 14.90209961 26.41894531 C7.18448135 33.20448024 7.18448135 33.20448024 3.8984375 42.5625 C3.93243652 43.34496094 3.96643555 44.12742188 4.00146484 44.93359375 C4 47 4 47 2.0625 50.125 C-2.31371391 52.80431464 -6.00124952 52.98336075 -11 52 C-14.125 50.125 -14.125 50.125 -16 47 C-16.98336075 42.00124952 -16.80431464 38.31371391 -14.125 33.9375 C-10.75452467 31.84780529 -10.25786623 31.94099366 -6.5625 32.1015625 C1.33234307 31.44282082 6.04559173 24.90003252 11.125 19.4375 C12.1853621 18.33192992 13.24784693 17.22839165 14.3125 16.12695312 C16.90486519 13.44373401 19.44824268 10.72428849 22 8 C14.74 7.67 7.48 7.34 0 7 C0 4.69 0 2.38 0 0 Z M-8 38 C-10.26839983 39.83265325 -10.26839983 39.83265325 -10.1875 42.5625 C-10.27003323 44.94689723 -10.27003323 44.94689723 -9 46 C-6.54190002 46.2500773 -6.54190002 46.2500773 -4 46 C-3.34 45.34 -2.68 44.68 -2 44 C-2.32041397 41.39719432 -2.32041397 41.39719432 -3 39 C-5.39719432 38.32041397 -5.39719432 38.32041397 -8 38 Z " fill="#5B5B5B" transform="translate(22,6)"/>
</svg>
